<svg width="24" height="24" viewBox="0 0 24 24" fill="none" xmlns="http://www.w3.org/2000/svg">
<path d="M13.028 2.00099C13.7577 1.99819 14.4875 2.00552 15.217 2.02299L15.411 2.02999C15.635 2.03799 15.856 2.04799 16.123 2.05999C17.187 2.10999 17.913 2.27799 18.55 2.52499C19.21 2.77899 19.766 3.12299 20.322 3.67899C20.8304 4.17859 21.2238 4.78293 21.475 5.44999C21.722 6.08699 21.89 6.81399 21.94 7.87799C21.952 8.14399 21.962 8.36599 21.97 8.58999L21.976 8.78399C21.9938 9.51318 22.0014 10.2426 21.999 10.972L22 11.718V13.028C22.0025 13.7577 21.9948 14.4875 21.977 15.217L21.971 15.411C21.963 15.635 21.953 15.856 21.941 16.123C21.891 17.187 21.721 17.913 21.475 18.55C21.2246 19.2177 20.8311 19.8226 20.322 20.322C19.822 20.8303 19.2173 21.2237 18.55 21.475C17.913 21.722 17.187 21.89 16.123 21.94C15.856 21.952 15.635 21.962 15.411 21.97L15.217 21.976C14.4875 21.9938 13.7577 22.0014 13.028 21.999L12.282 22H10.973C10.2433 22.0025 9.51353 21.9948 8.784 21.977L8.59 21.971C8.35261 21.9624 8.11527 21.9524 7.878 21.941C6.814 21.891 6.088 21.721 5.45 21.475C4.78268 21.2243 4.17824 20.8308 3.679 20.322C3.17005 19.8223 2.77622 19.2175 2.525 18.55C2.278 17.913 2.11 17.187 2.06 16.123C2.04886 15.8857 2.03886 15.6484 2.03 15.411L2.025 15.217C2.00656 14.4875 1.99823 13.7577 2 13.028V10.972C1.99721 10.2426 2.00454 9.51318 2.022 8.78399L2.029 8.58999C2.037 8.36599 2.047 8.14399 2.059 7.87799C2.109 6.81299 2.277 6.08799 2.524 5.44999C2.77537 4.78261 3.16996 4.17843 3.68 3.67999C4.17889 3.17074 4.78296 2.77656 5.45 2.52499C6.088 2.27799 6.813 2.10999 7.878 2.05999L8.59 2.02999L8.784 2.02499C9.51318 2.00656 10.2426 1.99823 10.972 1.99999L13.028 2.00099ZM12 6.99999C10.6739 6.99999 9.40215 7.52677 8.46447 8.46445C7.52678 9.40213 7 10.6739 7 12C7 13.3261 7.52678 14.5978 8.46447 15.5355C9.40215 16.4732 10.6739 17 12 17C13.3261 17 14.5979 16.4732 15.5355 15.5355C16.4732 14.5978 17 13.3261 17 12C17 10.6739 16.4732 9.40213 15.5355 8.46445C14.5979 7.52677 13.3261 6.99999 12 6.99999ZM12 8.99999C12.394 8.99992 12.7841 9.07745 13.1481 9.22816C13.5121 9.37886 13.8428 9.59978 14.1215 9.87831C14.4001 10.1568 14.6211 10.4875 14.7719 10.8515C14.9228 11.2154 15.0004 11.6055 15.0005 11.9995C15.0006 12.3935 14.923 12.7836 14.7723 13.1476C14.6216 13.5116 14.4007 13.8423 14.1222 14.121C13.8436 14.3996 13.513 14.6206 13.149 14.7714C12.7851 14.9223 12.395 14.9999 12.001 15C11.2054 15 10.4423 14.6839 9.87968 14.1213C9.31707 13.5587 9.001 12.7956 9.001 12C9.001 11.2043 9.31707 10.4413 9.87968 9.87867C10.4423 9.31606 11.2054 8.99999 12.001 8.99999M17.251 5.49999C16.9284 5.5129 16.6233 5.65014 16.3996 5.88296C16.1759 6.11578 16.051 6.42612 16.051 6.74899C16.051 7.07185 16.1759 7.38219 16.3996 7.61502C16.6233 7.84784 16.9284 7.98507 17.251 7.99799C17.5825 7.99799 17.9005 7.86629 18.1349 7.63187C18.3693 7.39745 18.501 7.07951 18.501 6.74799C18.501 6.41647 18.3693 6.09852 18.1349 5.8641C17.9005 5.62968 17.5825 5.49799 17.251 5.49799" fill="black"/>
</svg>
