<svg width="162" height="80" viewBox="0 0 162 80" fill="none" xmlns="http://www.w3.org/2000/svg">
<path d="M17.6855 25.059C17.1815 25.059 16.7522 25.003 16.3975 24.891C16.0522 24.779 15.7489 24.5924 15.4875 24.331C15.2262 24.0604 14.9789 23.7057 14.7455 23.267L15.8515 22.357C16.0195 22.7304 16.1782 23.0197 16.3275 23.225C16.4769 23.4304 16.6542 23.575 16.8595 23.659C17.0742 23.7337 17.3495 23.771 17.6855 23.771C18.3389 23.771 18.8382 23.729 19.1835 23.645C19.5289 23.561 19.7669 23.4164 19.8975 23.211C20.0375 23.0057 20.1075 22.7304 20.1075 22.385C20.1075 22.0397 20.0515 21.7784 19.9395 21.601C19.8275 21.4237 19.6222 21.293 19.3235 21.209C19.0342 21.1157 18.6142 21.0364 18.0635 20.971C17.3449 20.8777 16.7522 20.7424 16.2855 20.565C15.8282 20.3877 15.4875 20.1404 15.2635 19.823C15.0489 19.4964 14.9415 19.081 14.9415 18.577C14.9415 17.9517 15.0535 17.4524 15.2775 17.079C15.5015 16.7057 15.8655 16.435 16.3695 16.267C16.8735 16.099 17.5455 16.015 18.3855 16.015C18.9175 16.015 19.3609 16.0664 19.7155 16.169C20.0795 16.2624 20.3969 16.421 20.6675 16.645C20.9382 16.869 21.1902 17.1724 21.4235 17.555L20.4015 18.549C20.2242 18.213 20.0515 17.9564 19.8835 17.779C19.7249 17.6017 19.5289 17.4804 19.2955 17.415C19.0715 17.3404 18.7682 17.303 18.3855 17.303C17.8442 17.303 17.4242 17.3404 17.1255 17.415C16.8269 17.4897 16.6215 17.6204 16.5095 17.807C16.3975 17.9937 16.3415 18.2504 16.3415 18.577C16.3415 18.9224 16.4769 19.165 16.7475 19.305C17.0275 19.445 17.4942 19.5617 18.1475 19.655C18.9782 19.767 19.6362 19.921 20.1215 20.117C20.6162 20.313 20.9709 20.5884 21.1855 20.943C21.4002 21.2977 21.5075 21.7784 21.5075 22.385C21.5075 23.0384 21.3815 23.561 21.1295 23.953C20.8869 24.3357 20.4855 24.6157 19.9255 24.793C19.3749 24.9704 18.6282 25.059 17.6855 25.059ZM28.7821 25.059C27.8767 25.059 27.1581 24.9097 26.6261 24.611C26.0941 24.3124 25.7114 23.8317 25.4781 23.169C25.2541 22.5064 25.1421 21.629 25.1421 20.537C25.1421 19.445 25.2587 18.5677 25.4921 17.905C25.7254 17.2424 26.1081 16.7617 26.6401 16.463C27.1814 16.1644 27.9141 16.015 28.8381 16.015C29.3607 16.015 29.8041 16.0757 30.1681 16.197C30.5414 16.309 30.8727 16.5004 31.1621 16.771C31.4607 17.0324 31.7547 17.3964 32.0441 17.863L30.8681 18.563C30.6534 18.227 30.4574 17.9704 30.2801 17.793C30.1027 17.6064 29.9021 17.4804 29.6781 17.415C29.4634 17.3404 29.1834 17.303 28.8381 17.303C28.2501 17.303 27.7881 17.401 27.4521 17.597C27.1161 17.793 26.8781 18.1244 26.7381 18.591C26.6074 19.0577 26.5421 19.7064 26.5421 20.537C26.5421 21.3584 26.6074 22.007 26.7381 22.483C26.8687 22.9497 27.0974 23.281 27.4241 23.477C27.7507 23.673 28.2034 23.771 28.7821 23.771C29.1181 23.771 29.3981 23.7337 29.6221 23.659C29.8554 23.5844 30.0654 23.4584 30.2521 23.281C30.4481 23.0944 30.6581 22.833 30.8821 22.497L32.0441 23.197C31.7547 23.6544 31.4561 24.023 31.1481 24.303C30.8494 24.5737 30.5134 24.765 30.1401 24.877C29.7667 24.9984 29.3141 25.059 28.7821 25.059ZM38.6886 24.863V16.617L39.5706 17.499H36.9246V16.211H40.0886V24.863H38.6886ZM36.2386 24.863V23.575H42.5386V24.863H36.2386ZM39.0946 14.825C38.6653 14.825 38.3713 14.7504 38.2126 14.601C38.0539 14.4517 37.9746 14.1764 37.9746 13.775C37.9746 13.3737 38.0539 13.0984 38.2126 12.949C38.3713 12.7997 38.6653 12.725 39.0946 12.725C39.5239 12.725 39.8179 12.7997 39.9766 12.949C40.1353 13.0984 40.2146 13.3737 40.2146 13.775C40.2146 14.1764 40.1353 14.4517 39.9766 14.601C39.8179 14.7504 39.5239 14.825 39.0946 14.825ZM49.5611 25.059C48.6558 25.059 47.9371 24.9237 47.4051 24.653C46.8825 24.373 46.5091 23.9017 46.2851 23.239C46.0705 22.5764 45.9631 21.6757 45.9631 20.537C45.9631 19.389 46.0705 18.4884 46.2851 17.835C46.5091 17.1724 46.8825 16.7057 47.4051 16.435C47.9371 16.155 48.6558 16.015 49.5611 16.015C50.4571 16.015 51.1571 16.1644 51.6611 16.463C52.1745 16.7524 52.5385 17.2517 52.7531 17.961C52.9678 18.6704 53.0751 19.641 53.0751 20.873H46.3691V19.585H51.6471C51.6471 19.0064 51.5818 18.5537 51.4511 18.227C51.3298 17.891 51.1151 17.653 50.8071 17.513C50.5085 17.373 50.0931 17.303 49.5611 17.303C49.0011 17.303 48.5625 17.401 48.2451 17.597C47.9278 17.7837 47.6991 18.101 47.5591 18.549C47.4285 18.997 47.3631 19.6177 47.3631 20.411C47.3631 21.2604 47.4285 21.9324 47.5591 22.427C47.6991 22.9124 47.9278 23.2577 48.2451 23.463C48.5625 23.6684 49.0011 23.771 49.5611 23.771C49.8878 23.771 50.1725 23.7337 50.4151 23.659C50.6671 23.575 50.9005 23.4444 51.1151 23.267C51.3298 23.0804 51.5538 22.8284 51.7871 22.511L52.9071 23.253C52.5991 23.7104 52.2911 24.0697 51.9831 24.331C51.6751 24.5924 51.3298 24.779 50.9471 24.891C50.5645 25.003 50.1025 25.059 49.5611 25.059ZM56.8357 24.863V16.211H58.2357V16.575C58.4877 16.3977 58.7863 16.2624 59.1317 16.169C59.477 16.0664 59.9017 16.015 60.4057 16.015C61.1523 16.015 61.7403 16.1224 62.1697 16.337C62.599 16.5517 62.9023 16.9157 63.0797 17.429C63.257 17.9424 63.3457 18.647 63.3457 19.543V24.863H61.9457V19.543C61.9457 18.9737 61.899 18.5257 61.8057 18.199C61.7123 17.8724 61.5537 17.6437 61.3297 17.513C61.1057 17.373 60.7977 17.303 60.4057 17.303C59.8083 17.303 59.351 17.359 59.0337 17.471C58.7257 17.583 58.5157 17.7884 58.4037 18.087C58.2917 18.3857 58.2357 18.8197 58.2357 19.389V24.863H56.8357ZM70.7602 25.059C69.8549 25.059 69.1362 24.9097 68.6042 24.611C68.0722 24.3124 67.6895 23.8317 67.4562 23.169C67.2322 22.5064 67.1202 21.629 67.1202 20.537C67.1202 19.445 67.2369 18.5677 67.4702 17.905C67.7035 17.2424 68.0862 16.7617 68.6182 16.463C69.1595 16.1644 69.8922 16.015 70.8162 16.015C71.3389 16.015 71.7822 16.0757 72.1462 16.197C72.5195 16.309 72.8509 16.5004 73.1402 16.771C73.4389 17.0324 73.7329 17.3964 74.0222 17.863L72.8462 18.563C72.6315 18.227 72.4355 17.9704 72.2582 17.793C72.0809 17.6064 71.8802 17.4804 71.6562 17.415C71.4415 17.3404 71.1615 17.303 70.8162 17.303C70.2282 17.303 69.7662 17.401 69.4302 17.597C69.0942 17.793 68.8562 18.1244 68.7162 18.591C68.5855 19.0577 68.5202 19.7064 68.5202 20.537C68.5202 21.3584 68.5855 22.007 68.7162 22.483C68.8469 22.9497 69.0755 23.281 69.4022 23.477C69.7289 23.673 70.1815 23.771 70.7602 23.771C71.0962 23.771 71.3762 23.7337 71.6002 23.659C71.8335 23.5844 72.0435 23.4584 72.2302 23.281C72.4262 23.0944 72.6362 22.833 72.8602 22.497L74.0222 23.197C73.7329 23.6544 73.4342 24.023 73.1262 24.303C72.8275 24.5737 72.4915 24.765 72.1182 24.877C71.7449 24.9984 71.2922 25.059 70.7602 25.059ZM81.0447 25.059C80.1394 25.059 79.4207 24.9237 78.8887 24.653C78.3661 24.373 77.9927 23.9017 77.7687 23.239C77.5541 22.5764 77.4467 21.6757 77.4467 20.537C77.4467 19.389 77.5541 18.4884 77.7687 17.835C77.9927 17.1724 78.3661 16.7057 78.8887 16.435C79.4207 16.155 80.1394 16.015 81.0447 16.015C81.9407 16.015 82.6407 16.1644 83.1447 16.463C83.6581 16.7524 84.0221 17.2517 84.2367 17.961C84.4514 18.6704 84.5587 19.641 84.5587 20.873H77.8527V19.585H83.1307C83.1307 19.0064 83.0654 18.5537 82.9347 18.227C82.8134 17.891 82.5987 17.653 82.2907 17.513C81.9921 17.373 81.5767 17.303 81.0447 17.303C80.4847 17.303 80.0461 17.401 79.7287 17.597C79.4114 17.7837 79.1827 18.101 79.0427 18.549C78.9121 18.997 78.8467 19.6177 78.8467 20.411C78.8467 21.2604 78.9121 21.9324 79.0427 22.427C79.1827 22.9124 79.4114 23.2577 79.7287 23.463C80.0461 23.6684 80.4847 23.771 81.0447 23.771C81.3714 23.771 81.6561 23.7337 81.8987 23.659C82.1507 23.575 82.3841 23.4444 82.5987 23.267C82.8134 23.0804 83.0374 22.8284 83.2707 22.511L84.3907 23.253C84.0827 23.7104 83.7747 24.0697 83.4667 24.331C83.1587 24.5924 82.8134 24.779 82.4307 24.891C82.0481 25.003 81.5861 25.059 81.0447 25.059ZM100.13 24.863V16.645C100.13 15.861 100.223 15.2404 100.41 14.783C100.606 14.3164 100.923 13.9804 101.362 13.775C101.81 13.5697 102.402 13.467 103.14 13.467C103.728 13.467 104.208 13.523 104.582 13.635C104.955 13.747 105.249 13.9337 105.464 14.195C105.688 14.447 105.865 14.7924 105.996 15.231L104.68 15.679C104.605 15.427 104.521 15.2357 104.428 15.105C104.334 14.9744 104.19 14.8857 103.994 14.839C103.807 14.783 103.522 14.755 103.14 14.755C102.72 14.755 102.393 14.8064 102.16 14.909C101.926 15.0117 101.763 15.203 101.67 15.483C101.576 15.7537 101.53 16.141 101.53 16.645V24.863H100.13ZM98.3938 18.941V17.653H104.022V18.941H98.3938ZM112.486 25.059C111.646 25.059 110.979 24.9097 110.484 24.611C109.999 24.3124 109.649 23.8317 109.434 23.169C109.229 22.497 109.126 21.6197 109.126 20.537C109.126 19.445 109.229 18.5677 109.434 17.905C109.649 17.2424 109.999 16.7617 110.484 16.463C110.979 16.1644 111.646 16.015 112.486 16.015C113.326 16.015 113.989 16.1644 114.474 16.463C114.969 16.7617 115.319 17.2424 115.524 17.905C115.739 18.5677 115.846 19.445 115.846 20.537C115.846 21.6197 115.739 22.497 115.524 23.169C115.319 23.8317 114.969 24.3124 114.474 24.611C113.989 24.9097 113.326 25.059 112.486 25.059ZM112.486 23.771C112.99 23.771 113.382 23.673 113.662 23.477C113.952 23.281 114.152 22.9497 114.264 22.483C114.386 22.007 114.446 21.3584 114.446 20.537C114.446 19.7064 114.386 19.0577 114.264 18.591C114.152 18.1244 113.952 17.793 113.662 17.597C113.382 17.401 112.99 17.303 112.486 17.303C111.982 17.303 111.586 17.401 111.296 17.597C111.016 17.793 110.816 18.1244 110.694 18.591C110.582 19.0577 110.526 19.7064 110.526 20.537C110.526 21.3584 110.582 22.007 110.694 22.483C110.816 22.9497 111.016 23.281 111.296 23.477C111.586 23.673 111.982 23.771 112.486 23.771ZM122.631 25.059C122.127 25.059 121.698 25.003 121.343 24.891C120.998 24.779 120.694 24.5924 120.433 24.331C120.172 24.0604 119.924 23.7057 119.691 23.267L120.797 22.357C120.965 22.7304 121.124 23.0197 121.273 23.225C121.422 23.4304 121.6 23.575 121.805 23.659C122.02 23.7337 122.295 23.771 122.631 23.771C123.284 23.771 123.784 23.729 124.129 23.645C124.474 23.561 124.712 23.4164 124.843 23.211C124.983 23.0057 125.053 22.7304 125.053 22.385C125.053 22.0397 124.997 21.7784 124.885 21.601C124.773 21.4237 124.568 21.293 124.269 21.209C123.98 21.1157 123.56 21.0364 123.009 20.971C122.29 20.8777 121.698 20.7424 121.231 20.565C120.774 20.3877 120.433 20.1404 120.209 19.823C119.994 19.4964 119.887 19.081 119.887 18.577C119.887 17.9517 119.999 17.4524 120.223 17.079C120.447 16.7057 120.811 16.435 121.315 16.267C121.819 16.099 122.491 16.015 123.331 16.015C123.863 16.015 124.306 16.0664 124.661 16.169C125.025 16.2624 125.342 16.421 125.613 16.645C125.884 16.869 126.136 17.1724 126.369 17.555L125.347 18.549C125.17 18.213 124.997 17.9564 124.829 17.779C124.67 17.6017 124.474 17.4804 124.241 17.415C124.017 17.3404 123.714 17.303 123.331 17.303C122.79 17.303 122.37 17.3404 122.071 17.415C121.772 17.4897 121.567 17.6204 121.455 17.807C121.343 17.9937 121.287 18.2504 121.287 18.577C121.287 18.9224 121.422 19.165 121.693 19.305C121.973 19.445 122.44 19.5617 123.093 19.655C123.924 19.767 124.582 19.921 125.067 20.117C125.562 20.313 125.916 20.5884 126.131 20.943C126.346 21.2977 126.453 21.7784 126.453 22.385C126.453 23.0384 126.327 23.561 126.075 23.953C125.832 24.3357 125.431 24.6157 124.871 24.793C124.32 24.9704 123.574 25.059 122.631 25.059ZM133.517 25.059C132.612 25.059 131.893 24.9237 131.361 24.653C130.839 24.373 130.465 23.9017 130.241 23.239C130.027 22.5764 129.919 21.6757 129.919 20.537C129.919 19.389 130.027 18.4884 130.241 17.835C130.465 17.1724 130.839 16.7057 131.361 16.435C131.893 16.155 132.612 16.015 133.517 16.015C134.413 16.015 135.113 16.1644 135.617 16.463C136.131 16.7524 136.495 17.2517 136.709 17.961C136.924 18.6704 137.031 19.641 137.031 20.873H130.325V19.585H135.603C135.603 19.0064 135.538 18.5537 135.407 18.227C135.286 17.891 135.071 17.653 134.763 17.513C134.465 17.373 134.049 17.303 133.517 17.303C132.957 17.303 132.519 17.401 132.201 17.597C131.884 17.7837 131.655 18.101 131.515 18.549C131.385 18.997 131.319 19.6177 131.319 20.411C131.319 21.2604 131.385 21.9324 131.515 22.427C131.655 22.9124 131.884 23.2577 132.201 23.463C132.519 23.6684 132.957 23.771 133.517 23.771C133.844 23.771 134.129 23.7337 134.371 23.659C134.623 23.575 134.857 23.4444 135.071 23.267C135.286 23.0804 135.51 22.8284 135.743 22.511L136.863 23.253C136.555 23.7104 136.247 24.0697 135.939 24.331C135.631 24.5924 135.286 24.779 134.903 24.891C134.521 25.003 134.059 25.059 133.517 25.059ZM140.792 24.863V16.211H142.192V16.575C142.444 16.3977 142.743 16.2624 143.088 16.169C143.433 16.0664 143.858 16.015 144.362 16.015C145.109 16.015 145.697 16.1224 146.126 16.337C146.555 16.5517 146.859 16.9157 147.036 17.429C147.213 17.9424 147.302 18.647 147.302 19.543V24.863H145.902V19.543C145.902 18.9737 145.855 18.5257 145.762 18.199C145.669 17.8724 145.51 17.6437 145.286 17.513C145.062 17.373 144.754 17.303 144.362 17.303C143.765 17.303 143.307 17.359 142.99 17.471C142.682 17.583 142.472 17.7884 142.36 18.087C142.248 18.3857 142.192 18.8197 142.192 19.389V24.863H140.792ZM35.2852 66.283C34.2052 66.283 33.2852 66.163 32.5252 65.923C31.7852 65.683 31.1352 65.283 30.5752 64.723C30.0152 64.143 29.4852 63.383 28.9852 62.443L31.3552 60.493C31.7152 61.293 32.0552 61.913 32.3752 62.353C32.6952 62.793 33.0752 63.103 33.5152 63.283C33.9752 63.443 34.5652 63.523 35.2852 63.523C36.6852 63.523 37.7552 63.433 38.4952 63.253C39.2352 63.073 39.7452 62.763 40.0252 62.323C40.3252 61.883 40.4752 61.293 40.4752 60.553C40.4752 59.813 40.3552 59.253 40.1152 58.873C39.8752 58.493 39.4352 58.213 38.7952 58.033C38.1752 57.833 37.2752 57.663 36.0952 57.523C34.5552 57.323 33.2852 57.033 32.2852 56.653C31.3052 56.273 30.5752 55.743 30.0952 55.063C29.6352 54.363 29.4052 53.473 29.4052 52.393C29.4052 51.053 29.6452 49.983 30.1252 49.183C30.6052 48.383 31.3852 47.803 32.4652 47.443C33.5452 47.083 34.9852 46.903 36.7852 46.903C37.9252 46.903 38.8752 47.013 39.6352 47.233C40.4152 47.433 41.0952 47.773 41.6752 48.253C42.2552 48.733 42.7952 49.383 43.2952 50.203L41.1052 52.333C40.7252 51.613 40.3552 51.063 39.9952 50.683C39.6552 50.303 39.2352 50.043 38.7352 49.903C38.2552 49.743 37.6052 49.663 36.7852 49.663C35.6252 49.663 34.7252 49.743 34.0852 49.903C33.4452 50.063 33.0052 50.343 32.7652 50.743C32.5252 51.143 32.4052 51.693 32.4052 52.393C32.4052 53.133 32.6952 53.653 33.2752 53.953C33.8752 54.253 34.8752 54.503 36.2752 54.703C38.0552 54.943 39.4652 55.273 40.5052 55.693C41.5652 56.113 42.3252 56.703 42.7852 57.463C43.2452 58.223 43.4752 59.253 43.4752 60.553C43.4752 61.953 43.2052 63.073 42.6652 63.913C42.1452 64.733 41.2852 65.333 40.0852 65.713C38.9052 66.093 37.3052 66.283 35.2852 66.283ZM54.5634 66.283C52.6234 66.283 51.0834 65.963 49.9434 65.323C48.8034 64.683 47.9834 63.653 47.4834 62.233C47.0034 60.813 46.7634 58.933 46.7634 56.593C46.7634 54.253 47.0134 52.373 47.5134 50.953C48.0134 49.533 48.8334 48.503 49.9734 47.863C51.1334 47.223 52.7034 46.903 54.6834 46.903C55.8034 46.903 56.7534 47.033 57.5334 47.293C58.3334 47.533 59.0434 47.943 59.6634 48.523C60.3034 49.083 60.9334 49.863 61.5534 50.863L59.0334 52.363C58.5734 51.643 58.1534 51.093 57.7734 50.713C57.3934 50.313 56.9634 50.043 56.4834 49.903C56.0234 49.743 55.4234 49.663 54.6834 49.663C53.4234 49.663 52.4334 49.873 51.7134 50.293C50.9934 50.713 50.4834 51.423 50.1834 52.423C49.9034 53.423 49.7634 54.813 49.7634 56.593C49.7634 58.353 49.9034 59.743 50.1834 60.763C50.4634 61.763 50.9534 62.473 51.6534 62.893C52.3534 63.313 53.3234 63.523 54.5634 63.523C55.2834 63.523 55.8834 63.443 56.3634 63.283C56.8634 63.123 57.3134 62.853 57.7134 62.473C58.1334 62.073 58.5834 61.513 59.0634 60.793L61.5534 62.293C60.9334 63.273 60.2934 64.063 59.6334 64.663C58.9934 65.243 58.2734 65.653 57.4734 65.893C56.6734 66.153 55.7034 66.283 54.5634 66.283ZM71.2917 65.863V48.193L73.1817 50.083H67.5117V47.323H74.2917V65.863H71.2917ZM66.0417 65.863V63.103H79.5417V65.863H66.0417ZM72.1617 44.353C71.2417 44.353 70.6117 44.193 70.2717 43.873C69.9317 43.553 69.7617 42.963 69.7617 42.103C69.7617 41.243 69.9317 40.653 70.2717 40.333C70.6117 40.013 71.2417 39.853 72.1617 39.853C73.0817 39.853 73.7117 40.013 74.0517 40.333C74.3917 40.653 74.5617 41.243 74.5617 42.103C74.5617 42.963 74.3917 43.553 74.0517 43.873C73.7117 44.193 73.0817 44.353 72.1617 44.353ZM83.85 55.243V52.483H96.15V55.243H83.85ZM103.998 65.863V48.253C103.998 46.573 104.198 45.243 104.598 44.263C105.018 43.263 105.698 42.543 106.638 42.103C107.598 41.663 108.868 41.443 110.448 41.443C111.708 41.443 112.738 41.563 113.538 41.803C114.338 42.043 114.968 42.443 115.428 43.003C115.908 43.543 116.288 44.283 116.568 45.223L113.748 46.183C113.588 45.643 113.408 45.233 113.208 44.953C113.008 44.673 112.698 44.483 112.278 44.383C111.878 44.263 111.268 44.203 110.448 44.203C109.548 44.203 108.848 44.313 108.348 44.533C107.848 44.753 107.498 45.163 107.298 45.763C107.098 46.343 106.998 47.173 106.998 48.253V65.863H103.998ZM100.278 53.173V50.413H112.338V53.173H100.278ZM125.977 66.283C124.177 66.283 122.747 65.963 121.687 65.323C120.647 64.683 119.897 63.653 119.437 62.233C118.997 60.793 118.777 58.913 118.777 56.593C118.777 54.253 118.997 52.373 119.437 50.953C119.897 49.533 120.647 48.503 121.687 47.863C122.747 47.223 124.177 46.903 125.977 46.903C127.777 46.903 129.197 47.223 130.237 47.863C131.297 48.503 132.047 49.533 132.487 50.953C132.947 52.373 133.177 54.253 133.177 56.593C133.177 58.913 132.947 60.793 132.487 62.233C132.047 63.653 131.297 64.683 130.237 65.323C129.197 65.963 127.777 66.283 125.977 66.283ZM125.977 63.523C127.057 63.523 127.897 63.313 128.497 62.893C129.117 62.473 129.547 61.763 129.787 60.763C130.047 59.743 130.177 58.353 130.177 56.593C130.177 54.813 130.047 53.423 129.787 52.423C129.547 51.423 129.117 50.713 128.497 50.293C127.897 49.873 127.057 49.663 125.977 49.663C124.897 49.663 124.047 49.873 123.427 50.293C122.827 50.713 122.397 51.423 122.137 52.423C121.897 53.423 121.777 54.813 121.777 56.593C121.777 58.353 121.897 59.743 122.137 60.763C122.397 61.763 122.827 62.473 123.427 62.893C124.047 63.313 124.897 63.523 125.977 63.523Z" fill="black"/>
<rect x="1.5" y="1.5" width="159" height="77" stroke="black" stroke-width="3"/>
</svg>
