<svg width="80" height="80" viewBox="0 0 80 80" fill="none" xmlns="http://www.w3.org/2000/svg">
<path d="M9.52344 49.28C8.80344 49.28 8.1901 49.2 7.68344 49.04C7.1901 48.88 6.75677 48.6133 6.38344 48.24C6.0101 47.8533 5.65677 47.3467 5.32344 46.72L6.90344 45.42C7.14344 45.9533 7.3701 46.3667 7.58344 46.66C7.79677 46.9533 8.0501 47.16 8.34344 47.28C8.6501 47.3867 9.04344 47.44 9.52344 47.44C10.4568 47.44 11.1701 47.38 11.6634 47.26C12.1568 47.14 12.4968 46.9333 12.6834 46.64C12.8834 46.3467 12.9834 45.9533 12.9834 45.46C12.9834 44.9667 12.9034 44.5933 12.7434 44.34C12.5834 44.0867 12.2901 43.9 11.8634 43.78C11.4501 43.6467 10.8501 43.5333 10.0634 43.44C9.03677 43.3067 8.1901 43.1133 7.52344 42.86C6.8701 42.6067 6.38344 42.2533 6.06344 41.8C5.75677 41.3333 5.60344 40.74 5.60344 40.02C5.60344 39.1267 5.76344 38.4133 6.08344 37.88C6.40344 37.3467 6.92344 36.96 7.64344 36.72C8.36344 36.48 9.32344 36.36 10.5234 36.36C11.2834 36.36 11.9168 36.4333 12.4234 36.58C12.9434 36.7133 13.3968 36.94 13.7834 37.26C14.1701 37.58 14.5301 38.0133 14.8634 38.56L13.4034 39.98C13.1501 39.5 12.9034 39.1333 12.6634 38.88C12.4368 38.6267 12.1568 38.4533 11.8234 38.36C11.5034 38.2533 11.0701 38.2 10.5234 38.2C9.7501 38.2 9.1501 38.2533 8.72344 38.36C8.29677 38.4667 8.00344 38.6533 7.84344 38.92C7.68344 39.1867 7.60344 39.5533 7.60344 40.02C7.60344 40.5133 7.79677 40.86 8.18344 41.06C8.58344 41.26 9.2501 41.4267 10.1834 41.56C11.3701 41.72 12.3101 41.94 13.0034 42.22C13.7101 42.5 14.2168 42.8933 14.5234 43.4C14.8301 43.9067 14.9834 44.5933 14.9834 45.46C14.9834 46.3933 14.8034 47.14 14.4434 47.7C14.0968 48.2467 13.5234 48.6467 12.7234 48.9C11.9368 49.1533 10.8701 49.28 9.52344 49.28ZM22.3756 49.28C21.0823 49.28 20.0556 49.0667 19.2956 48.64C18.5356 48.2133 17.989 47.5267 17.6556 46.58C17.3356 45.6333 17.1756 44.38 17.1756 42.82C17.1756 41.26 17.3423 40.0067 17.6756 39.06C18.009 38.1133 18.5556 37.4267 19.3156 37C20.089 36.5733 21.1356 36.36 22.4556 36.36C23.2023 36.36 23.8356 36.4467 24.3556 36.62C24.889 36.78 25.3623 37.0533 25.7756 37.44C26.2023 37.8133 26.6223 38.3333 27.0356 39L25.3556 40C25.049 39.52 24.769 39.1533 24.5156 38.9C24.2623 38.6333 23.9756 38.4533 23.6556 38.36C23.349 38.2533 22.949 38.2 22.4556 38.2C21.6156 38.2 20.9556 38.34 20.4756 38.62C19.9956 38.9 19.6556 39.3733 19.4556 40.04C19.269 40.7067 19.1756 41.6333 19.1756 42.82C19.1756 43.9933 19.269 44.92 19.4556 45.6C19.6423 46.2667 19.969 46.74 20.4356 47.02C20.9023 47.3 21.549 47.44 22.3756 47.44C22.8556 47.44 23.2556 47.3867 23.5756 47.28C23.909 47.1733 24.209 46.9933 24.4756 46.74C24.7556 46.4733 25.0556 46.1 25.3756 45.62L27.0356 46.62C26.6223 47.2733 26.1956 47.8 25.7556 48.2C25.329 48.5867 24.849 48.86 24.3156 49.02C23.7823 49.1933 23.1356 49.28 22.3756 49.28ZM33.5278 49V37.22L34.7878 38.48H31.0078V36.64H35.5278V49H33.5278ZM30.0278 49V47.16H39.0278V49H30.0278ZM34.1078 34.66C33.4945 34.66 33.0745 34.5533 32.8478 34.34C32.6211 34.1267 32.5078 33.7333 32.5078 33.16C32.5078 32.5867 32.6211 32.1933 32.8478 31.98C33.0745 31.7667 33.4945 31.66 34.1078 31.66C34.7211 31.66 35.1411 31.7667 35.3678 31.98C35.5945 32.1933 35.7078 32.5867 35.7078 33.16C35.7078 33.7333 35.5945 34.1267 35.3678 34.34C35.1411 34.5533 34.7211 34.66 34.1078 34.66ZM41.9 41.92V40.08H50.1V41.92H41.9ZM55.3322 49V37.26C55.3322 36.14 55.4655 35.2533 55.7322 34.6C56.0122 33.9333 56.4655 33.4533 57.0922 33.16C57.7322 32.8667 58.5789 32.72 59.6322 32.72C60.4722 32.72 61.1589 32.8 61.6922 32.96C62.2255 33.12 62.6455 33.3867 62.9522 33.76C63.2722 34.12 63.5255 34.6133 63.7122 35.24L61.8322 35.88C61.7255 35.52 61.6055 35.2467 61.4722 35.06C61.3389 34.8733 61.1322 34.7467 60.8522 34.68C60.5855 34.6 60.1789 34.56 59.6322 34.56C59.0322 34.56 58.5655 34.6333 58.2322 34.78C57.8989 34.9267 57.6655 35.2 57.5322 35.6C57.3989 35.9867 57.3322 36.54 57.3322 37.26V49H55.3322ZM52.8522 40.54V38.7H60.8922V40.54H52.8522ZM69.9844 49.28C68.7844 49.28 67.831 49.0667 67.1244 48.64C66.431 48.2133 65.931 47.5267 65.6244 46.58C65.331 45.62 65.1844 44.3667 65.1844 42.82C65.1844 41.26 65.331 40.0067 65.6244 39.06C65.931 38.1133 66.431 37.4267 67.1244 37C67.831 36.5733 68.7844 36.36 69.9844 36.36C71.1844 36.36 72.131 36.5733 72.8244 37C73.531 37.4267 74.031 38.1133 74.3244 39.06C74.631 40.0067 74.7844 41.26 74.7844 42.82C74.7844 44.3667 74.631 45.62 74.3244 46.58C74.031 47.5267 73.531 48.2133 72.8244 48.64C72.131 49.0667 71.1844 49.28 69.9844 49.28ZM69.9844 47.44C70.7044 47.44 71.2644 47.3 71.6644 47.02C72.0777 46.74 72.3644 46.2667 72.5244 45.6C72.6977 44.92 72.7844 43.9933 72.7844 42.82C72.7844 41.6333 72.6977 40.7067 72.5244 40.04C72.3644 39.3733 72.0777 38.9 71.6644 38.62C71.2644 38.34 70.7044 38.2 69.9844 38.2C69.2644 38.2 68.6977 38.34 68.2844 38.62C67.8844 38.9 67.5977 39.3733 67.4244 40.04C67.2644 40.7067 67.1844 41.6333 67.1844 42.82C67.1844 43.9933 67.2644 44.92 67.4244 45.6C67.5977 46.2667 67.8844 46.74 68.2844 47.02C68.6977 47.3 69.2644 47.44 69.9844 47.44Z" fill="#08BBB0"/>
<rect x="1.5" y="1.5" width="77" height="77" stroke="#08BBB0" stroke-width="3"/>
</svg>
